%TF.GenerationSoftware,KiCad,Pcbnew,8.0.3*%
%TF.CreationDate,2024-07-14T10:18:13+10:00*%
%TF.ProjectId,USB-C to UART,5553422d-4320-4746-9f20-554152542e6b,rev?*%
%TF.SameCoordinates,Original*%
%TF.FileFunction,Profile,NP*%
%FSLAX46Y46*%
G04 Gerber Fmt 4.6, Leading zero omitted, Abs format (unit mm)*
G04 Created by KiCad (PCBNEW 8.0.3) date 2024-07-14 10:18:13*
%MOMM*%
%LPD*%
G01*
G04 APERTURE LIST*
%TA.AperFunction,Profile*%
%ADD10C,0.050000*%
%TD*%
G04 APERTURE END LIST*
D10*
X79180000Y31810000D02*
G75*
G02*
X79480000Y32110032I300096J-64D01*
G01*
X87180000Y35610000D02*
G75*
G02*
X87480060Y35310000I-4J-300064D01*
G01*
X96880000Y33910000D02*
G75*
G02*
X96580000Y33610032I-299904J-64D01*
G01*
X96880000Y35310000D02*
G75*
G02*
X97180000Y35610032I299996J36D01*
G01*
X80180000Y32410000D02*
G75*
G02*
X79880000Y32110032I-299904J-64D01*
G01*
X97180000Y35610000D02*
X103880000Y35610000D01*
X96880000Y33910000D02*
X96880000Y35310000D01*
X104880000Y5610000D02*
X79480000Y5610000D01*
X96880000Y33910000D02*
X96880000Y35310000D01*
X79480000Y32110000D02*
X79880000Y32110000D01*
X87780000Y33610000D02*
X87880000Y33610000D01*
X79480000Y5610000D02*
G75*
G02*
X79180060Y5910000I-4J299936D01*
G01*
X104480000Y32110000D02*
X104880000Y32110000D01*
X87780000Y33610000D02*
G75*
G02*
X87480060Y33910000I-4J299936D01*
G01*
X87180000Y35610000D02*
X80480000Y35610000D01*
X105180000Y31810000D02*
X105180000Y5910000D01*
X105180000Y5910000D02*
G75*
G02*
X104880000Y5610032I-300004J36D01*
G01*
X96480000Y33610000D02*
X96580000Y33610000D01*
X96480000Y33610000D02*
X96580000Y33610000D01*
X104480000Y32110000D02*
G75*
G02*
X104180060Y32410000I-4J299936D01*
G01*
X96880000Y35310000D02*
G75*
G02*
X97180000Y35610032I300096J-64D01*
G01*
X87480000Y33910000D02*
X87480000Y35310000D01*
X104880000Y32110000D02*
G75*
G02*
X105180060Y31810000I-4J-300064D01*
G01*
X96880000Y35310000D02*
G75*
G02*
X97180000Y35610032I299996J36D01*
G01*
X96880000Y33910000D02*
X96880000Y35310000D01*
X79180000Y31810000D02*
X79180000Y5910000D01*
X96880000Y33910000D02*
G75*
G02*
X96580000Y33610032I-300004J36D01*
G01*
X103880000Y35610000D02*
G75*
G02*
X104180060Y35310000I-4J-300064D01*
G01*
X80180000Y32410000D02*
X80180000Y35310000D01*
X104180000Y32410000D02*
X104180000Y35310000D01*
X80180000Y35310000D02*
G75*
G02*
X80480000Y35610032I299996J36D01*
G01*
%TO.C,P1*%
X88830000Y33610000D02*
X87880000Y33610000D01*
X89130000Y34270000D02*
X89130000Y33910000D01*
X89430000Y34570000D02*
X94930000Y34570000D01*
X95230000Y34270000D02*
X95230000Y33910000D01*
X95530000Y33610000D02*
X96480000Y33610000D01*
X89130000Y34270000D02*
G75*
G02*
X89430000Y34570000I300000J0D01*
G01*
X89130000Y33910000D02*
G75*
G02*
X88830000Y33610000I-300000J0D01*
G01*
X94930000Y34570000D02*
G75*
G02*
X95230000Y34270000I0J-300000D01*
G01*
X95530000Y33610000D02*
G75*
G02*
X95230000Y33910000I0J300000D01*
G01*
%TD*%
M02*
