%TF.GenerationSoftware,KiCad,Pcbnew,8.0.3*%
%TF.CreationDate,2024-07-14T10:18:13+10:00*%
%TF.ProjectId,USB-C to UART,5553422d-4320-4746-9f20-554152542e6b,rev?*%
%TF.SameCoordinates,Original*%
%TF.FileFunction,Copper,L2,Bot*%
%TF.FilePolarity,Positive*%
%FSLAX46Y46*%
G04 Gerber Fmt 4.6, Leading zero omitted, Abs format (unit mm)*
G04 Created by KiCad (PCBNEW 8.0.3) date 2024-07-14 10:18:13*
%MOMM*%
%LPD*%
G01*
G04 APERTURE LIST*
%TA.AperFunction,ComponentPad*%
%ADD10R,1.700000X1.700000*%
%TD*%
%TA.AperFunction,ComponentPad*%
%ADD11O,1.700000X1.700000*%
%TD*%
%TA.AperFunction,SMDPad,CuDef*%
%ADD12R,0.300000X1.000000*%
%TD*%
%TA.AperFunction,SMDPad,CuDef*%
%ADD13R,0.700000X1.150000*%
%TD*%
%TA.AperFunction,SMDPad,CuDef*%
%ADD14R,1.500000X1.500000*%
%TD*%
%TA.AperFunction,ViaPad*%
%ADD15C,0.500000*%
%TD*%
%TA.AperFunction,ViaPad*%
%ADD16C,0.800000*%
%TD*%
%TA.AperFunction,Conductor*%
%ADD17C,0.300000*%
%TD*%
%TA.AperFunction,Conductor*%
%ADD18C,0.200000*%
%TD*%
G04 APERTURE END LIST*
D10*
%TO.P,J1,1*%
%TO.N,Earth*%
X90430000Y7000000D03*
D11*
%TO.P,J1,2*%
%TO.N,CTS*%
X92970000Y7000000D03*
%TO.P,J1,3*%
%TO.N,VCC*%
X95510000Y7000000D03*
%TO.P,J1,4*%
%TO.N,TXO*%
X98050000Y7000000D03*
%TO.P,J1,5*%
%TO.N,RXI*%
X100590000Y7000000D03*
%TO.P,J1,6*%
%TO.N,DTR*%
X103130000Y7000000D03*
%TD*%
D10*
%TO.P,JP1,1*%
%TO.N,5V*%
X86250000Y7080000D03*
D11*
%TO.P,JP1,2*%
%TO.N,VCC*%
X83710000Y7080000D03*
%TO.P,JP1,3*%
%TO.N,3V3*%
X81170000Y7080000D03*
%TD*%
D12*
%TO.P,P1,B1*%
%TO.N,Earth*%
X94930000Y33570000D03*
%TO.P,P1,B2*%
%TO.N,N/C*%
X94430000Y33570000D03*
%TO.P,P1,B3*%
X93930000Y33570000D03*
%TO.P,P1,B4*%
%TO.N,5V*%
X93430000Y33570000D03*
%TO.P,P1,B5*%
%TO.N,Net-(P1-PadB5)*%
X92930000Y33570000D03*
%TO.P,P1,B8*%
%TO.N,N/C*%
X91430000Y33570000D03*
%TO.P,P1,B9*%
%TO.N,5V*%
X90930000Y33570000D03*
%TO.P,P1,B10*%
%TO.N,N/C*%
X90430000Y33570000D03*
%TO.P,P1,B11*%
X89930000Y33570000D03*
%TO.P,P1,B12*%
%TO.N,Earth*%
X89430000Y33570000D03*
D13*
%TO.P,P1,S1*%
X95600000Y32730000D03*
%TD*%
D14*
%TO.P,TP2,1,1*%
%TO.N,Earth*%
X86480000Y34610000D03*
%TD*%
%TO.P,TP4,1,1*%
%TO.N,Earth*%
X97880000Y34610000D03*
%TD*%
D15*
%TO.N,Earth*%
X97404500Y35038500D03*
D16*
X94650000Y11490000D03*
D15*
X86927000Y35038500D03*
D16*
X95420000Y19460000D03*
D15*
X97404500Y34149500D03*
D16*
X101860000Y6110000D03*
X91950000Y14360000D03*
X94200000Y6100000D03*
X92930000Y10910000D03*
X91290000Y12020000D03*
X85390000Y16690000D03*
D15*
X98357000Y35038500D03*
D16*
X92290000Y19510000D03*
X95590000Y15520000D03*
X95650000Y20520000D03*
X94140000Y8170000D03*
D15*
X86927000Y34149500D03*
D16*
X96760000Y6080000D03*
D15*
X98357000Y34149500D03*
D16*
X93620000Y12690000D03*
X88970000Y14470000D03*
D15*
X86038000Y34149500D03*
D16*
X99330000Y6150000D03*
X97770000Y8530000D03*
X82680000Y21360000D03*
D15*
X86038000Y35038500D03*
D16*
X93090000Y20530000D03*
%TO.N,VCC*%
X96930000Y15110000D03*
%TO.N,D-*%
X92680000Y32110000D03*
X91680000Y30360000D03*
%TO.N,RXI*%
X91180003Y15610000D03*
X94430000Y20360000D03*
%TO.N,TXO*%
X95605000Y23930000D03*
X90180000Y15610000D03*
%TO.N,5V*%
X90667024Y31372976D03*
X93930000Y31360000D03*
%TD*%
D17*
%TO.N,Earth*%
X94970001Y33319999D02*
X94970001Y33499298D01*
X95560000Y32730000D02*
X94970001Y33319999D01*
X95600000Y32730000D02*
X95560000Y32730000D01*
D18*
X94930000Y33570000D02*
X94930000Y33400000D01*
X94930000Y33400000D02*
X95600000Y32730000D01*
D17*
%TO.N,VCC*%
X85820000Y9190000D02*
X83710000Y7080000D01*
X95510000Y9190000D02*
X95510000Y13690000D01*
X95510000Y7000000D02*
X95510000Y9190000D01*
X95510000Y9190000D02*
X85820000Y9190000D01*
X95510000Y13690000D02*
X96930000Y15110000D01*
D18*
%TO.N,D-*%
X91680000Y31110000D02*
X92680000Y32110000D01*
X91680000Y30360000D02*
X91680000Y31110000D01*
D17*
%TO.N,RXI*%
X91180003Y15610000D02*
X91180003Y17110003D01*
X91180003Y17110003D02*
X94430000Y20360000D01*
%TO.N,TXO*%
X94500000Y23930000D02*
X90180000Y19610000D01*
X90180000Y19610000D02*
X90180000Y15610000D01*
X95605000Y23930000D02*
X94500000Y23930000D01*
D18*
%TO.N,5V*%
X90667024Y31372976D02*
X90930000Y31635952D01*
D17*
X92179999Y29609999D02*
X91319999Y29609999D01*
D18*
X93430000Y31860000D02*
X93930000Y31360000D01*
D17*
X93930000Y31360000D02*
X92179999Y29609999D01*
X90667024Y30262974D02*
X90667024Y31372976D01*
D18*
X90930000Y31635952D02*
X90930000Y33570000D01*
D17*
X91319999Y29609999D02*
X90667024Y30262974D01*
D18*
X93430000Y33570000D02*
X93430000Y31860000D01*
%TD*%
%TA.AperFunction,Conductor*%
%TO.N,Earth*%
G36*
X87186036Y35481299D02*
G01*
X87233835Y35471792D01*
X87256361Y35462463D01*
X87291668Y35438875D01*
X87308912Y35421635D01*
X87332506Y35386333D01*
X87341840Y35363810D01*
X87351297Y35316318D01*
X87352500Y35304112D01*
X87352500Y33878713D01*
X87352553Y33878171D01*
X87352548Y33853748D01*
X87352549Y33853744D01*
X87366940Y33800000D01*
X87380769Y33748355D01*
X87381664Y33745015D01*
X87381666Y33745010D01*
X87437929Y33647527D01*
X87437932Y33647523D01*
X87517504Y33567937D01*
X87517517Y33567924D01*
X87614995Y33511637D01*
X87723721Y33482501D01*
X87747358Y33482501D01*
X87747366Y33482500D01*
X88717500Y33482500D01*
X88761694Y33464194D01*
X88780000Y33420000D01*
X88780000Y33022165D01*
X88786402Y32962623D01*
X88836647Y32827909D01*
X88836649Y32827906D01*
X88922808Y32712814D01*
X88922813Y32712809D01*
X89037905Y32626650D01*
X89037908Y32626648D01*
X89172622Y32576403D01*
X89232164Y32570001D01*
X89232178Y32570000D01*
X89280000Y32570000D01*
X89280000Y33657500D01*
X89298306Y33701694D01*
X89342500Y33720000D01*
X89517000Y33720000D01*
X89561194Y33701694D01*
X89579500Y33657500D01*
X89579500Y33050251D01*
X89579699Y33048230D01*
X89580000Y33042104D01*
X89580000Y32570000D01*
X89627822Y32570000D01*
X89627835Y32570001D01*
X89687377Y32576403D01*
X89822091Y32626648D01*
X89822094Y32626650D01*
X89937186Y32712809D01*
X90023353Y32827913D01*
X90023699Y32828839D01*
X90024088Y32829258D01*
X90025496Y32831835D01*
X90026153Y32831476D01*
X90056293Y32863851D01*
X90082259Y32869500D01*
X90099748Y32869500D01*
X90158231Y32881133D01*
X90158231Y32881134D01*
X90164269Y32882334D01*
X90164685Y32880242D01*
X90195315Y32880246D01*
X90195731Y32882334D01*
X90201768Y32881134D01*
X90201769Y32881133D01*
X90260252Y32869500D01*
X90567000Y32869500D01*
X90611194Y32851194D01*
X90629500Y32807000D01*
X90629500Y32028530D01*
X90611194Y31984336D01*
X90575158Y31966565D01*
X90510269Y31958022D01*
X90510258Y31958019D01*
X90364185Y31897514D01*
X90364182Y31897512D01*
X90238741Y31801259D01*
X90142488Y31675818D01*
X90142486Y31675815D01*
X90081981Y31529742D01*
X90081978Y31529732D01*
X90061342Y31372978D01*
X90061342Y31372975D01*
X90081978Y31216221D01*
X90081981Y31216211D01*
X90142486Y31070138D01*
X90142488Y31070135D01*
X90152442Y31057162D01*
X90238742Y30944694D01*
X90292071Y30903773D01*
X90315989Y30862347D01*
X90316524Y30854189D01*
X90316524Y30216832D01*
X90316525Y30216824D01*
X90340408Y30127690D01*
X90340409Y30127687D01*
X90386555Y30047761D01*
X90386558Y30047757D01*
X91104781Y29329534D01*
X91104785Y29329531D01*
X91104787Y29329529D01*
X91184711Y29283385D01*
X91184714Y29283384D01*
X91239263Y29268768D01*
X91273855Y29259499D01*
X91273856Y29259499D01*
X92226142Y29259499D01*
X92226143Y29259499D01*
X92315287Y29283385D01*
X92395211Y29329529D01*
X93811002Y30745322D01*
X93855195Y30763627D01*
X93863353Y30763092D01*
X93929998Y30754318D01*
X93930000Y30754318D01*
X93930002Y30754318D01*
X94086755Y30774955D01*
X94086755Y30774956D01*
X94086762Y30774956D01*
X94232841Y30835464D01*
X94358282Y30931718D01*
X94454536Y31057159D01*
X94515044Y31203238D01*
X94535682Y31360000D01*
X94533973Y31372978D01*
X94515045Y31516756D01*
X94515044Y31516758D01*
X94515044Y31516762D01*
X94457784Y31655000D01*
X94454537Y31662839D01*
X94454535Y31662842D01*
X94358282Y31788283D01*
X94232841Y31884536D01*
X94232838Y31884538D01*
X94086765Y31945043D01*
X94086755Y31945046D01*
X93930002Y31965682D01*
X93929998Y31965682D01*
X93801158Y31948720D01*
X93754952Y31961100D01*
X93731035Y32002527D01*
X93730500Y32010685D01*
X93730500Y32807000D01*
X93748806Y32851194D01*
X93793000Y32869500D01*
X94099748Y32869500D01*
X94158231Y32881133D01*
X94158231Y32881134D01*
X94164269Y32882334D01*
X94164685Y32880242D01*
X94195315Y32880246D01*
X94195731Y32882334D01*
X94201768Y32881134D01*
X94201769Y32881133D01*
X94260252Y32869500D01*
X94277741Y32869500D01*
X94321935Y32851194D01*
X94334409Y32831784D01*
X94334504Y32831835D01*
X94335229Y32830507D01*
X94336301Y32828839D01*
X94336646Y32827913D01*
X94422813Y32712809D01*
X94537905Y32626650D01*
X94537908Y32626648D01*
X94672622Y32576403D01*
X94694180Y32574085D01*
X94736164Y32551161D01*
X94750000Y32511943D01*
X94750000Y32107165D01*
X94756402Y32047623D01*
X94806647Y31912909D01*
X94806649Y31912906D01*
X94892808Y31797814D01*
X94892813Y31797809D01*
X95007905Y31711650D01*
X95007908Y31711648D01*
X95142622Y31661403D01*
X95202164Y31655001D01*
X95202178Y31655000D01*
X95350000Y31655000D01*
X95850000Y31655000D01*
X95997822Y31655000D01*
X95997835Y31655001D01*
X96057377Y31661403D01*
X96192091Y31711648D01*
X96192094Y31711650D01*
X96307186Y31797809D01*
X96307191Y31797814D01*
X96393350Y31912906D01*
X96393352Y31912909D01*
X96443597Y32047623D01*
X96449999Y32107165D01*
X96450000Y32107178D01*
X96450000Y32480000D01*
X95850000Y32480000D01*
X95850000Y31655000D01*
X95350000Y31655000D01*
X95350000Y33434196D01*
X95368306Y33478390D01*
X95412500Y33496696D01*
X95428674Y33494567D01*
X95473719Y33482499D01*
X95530002Y33482500D01*
X95787500Y33482500D01*
X95831694Y33464194D01*
X95850000Y33420000D01*
X95850000Y32980000D01*
X96450000Y32980000D01*
X96450000Y33352823D01*
X96449999Y33352836D01*
X96443497Y33413319D01*
X96456974Y33459217D01*
X96498958Y33482142D01*
X96505639Y33482500D01*
X96611674Y33482500D01*
X96611900Y33482525D01*
X96636247Y33482517D01*
X96744993Y33511628D01*
X96842495Y33567902D01*
X96922102Y33647501D01*
X96978386Y33744996D01*
X97007509Y33853739D01*
X97007500Y33910027D01*
X97007504Y33939086D01*
X97007503Y33939088D01*
X97007504Y33945614D01*
X97007500Y33945662D01*
X97007500Y35273622D01*
X97007504Y35273665D01*
X97007503Y35280913D01*
X97007504Y35280914D01*
X97007500Y35303819D01*
X97008702Y35316013D01*
X97018217Y35363814D01*
X97027544Y35386327D01*
X97051144Y35421645D01*
X97068370Y35438874D01*
X97103690Y35462481D01*
X97126202Y35471810D01*
X97173835Y35481296D01*
X97186043Y35482500D01*
X97209099Y35482500D01*
X103850897Y35482500D01*
X103873844Y35482500D01*
X103886036Y35481299D01*
X103933835Y35471792D01*
X103956361Y35462463D01*
X103991668Y35438875D01*
X104008912Y35421635D01*
X104032506Y35386333D01*
X104041840Y35363810D01*
X104051297Y35316318D01*
X104052500Y35304112D01*
X104052500Y32378713D01*
X104052553Y32378171D01*
X104052548Y32353748D01*
X104052549Y32353744D01*
X104057934Y32333635D01*
X104080805Y32248221D01*
X104081664Y32245015D01*
X104081666Y32245010D01*
X104137929Y32147527D01*
X104137932Y32147523D01*
X104178270Y32107178D01*
X104217517Y32067924D01*
X104314995Y32011637D01*
X104423721Y31982501D01*
X104447358Y31982501D01*
X104447366Y31982500D01*
X104454639Y31982500D01*
X104480002Y31982500D01*
X104509103Y31982500D01*
X104850897Y31982500D01*
X104873844Y31982500D01*
X104886036Y31981299D01*
X104933835Y31971792D01*
X104956361Y31962463D01*
X104991668Y31938875D01*
X105008912Y31921635D01*
X105032506Y31886333D01*
X105041840Y31863810D01*
X105051297Y31816318D01*
X105052500Y31804112D01*
X105052500Y5916176D01*
X105051298Y5903976D01*
X105041789Y5856199D01*
X105032455Y5833671D01*
X105008874Y5798386D01*
X104991632Y5781147D01*
X104956344Y5757569D01*
X104933816Y5748238D01*
X104885872Y5738701D01*
X104873683Y5737500D01*
X91720644Y5737500D01*
X91676450Y5755806D01*
X91658144Y5800000D01*
X91670610Y5837455D01*
X91723352Y5907910D01*
X91773597Y6042623D01*
X91779999Y6102165D01*
X91780000Y6102178D01*
X91780000Y6750000D01*
X90863012Y6750000D01*
X90895925Y6807007D01*
X90930000Y6934174D01*
X90930000Y7000001D01*
X91914417Y7000001D01*
X91914417Y7000000D01*
X91934699Y6794070D01*
X91934700Y6794065D01*
X91994766Y6596051D01*
X91994768Y6596046D01*
X92092311Y6413556D01*
X92092313Y6413552D01*
X92092315Y6413550D01*
X92223590Y6253590D01*
X92383550Y6122315D01*
X92383553Y6122314D01*
X92383555Y6122312D01*
X92452523Y6085448D01*
X92566046Y6024768D01*
X92764066Y5964700D01*
X92970000Y5944417D01*
X93175934Y5964700D01*
X93373954Y6024768D01*
X93556450Y6122315D01*
X93716410Y6253590D01*
X93847685Y6413550D01*
X93945232Y6596046D01*
X94005300Y6794066D01*
X94025583Y7000000D01*
X94005300Y7205934D01*
X93945232Y7403954D01*
X93847685Y7586450D01*
X93716410Y7746410D01*
X93618930Y7826409D01*
X93556455Y7877681D01*
X93556453Y7877682D01*
X93556450Y7877685D01*
X93556448Y7877687D01*
X93556444Y7877689D01*
X93373954Y7975232D01*
X93373949Y7975234D01*
X93175935Y8035300D01*
X93175930Y8035301D01*
X92970000Y8055583D01*
X92764069Y8035301D01*
X92764064Y8035300D01*
X92566050Y7975234D01*
X92566045Y7975232D01*
X92383555Y7877689D01*
X92383544Y7877681D01*
X92223591Y7746412D01*
X92223588Y7746409D01*
X92092319Y7586456D01*
X92092311Y7586445D01*
X91994768Y7403955D01*
X91994766Y7403950D01*
X91934700Y7205936D01*
X91934699Y7205931D01*
X91914417Y7000001D01*
X90930000Y7000001D01*
X90930000Y7065826D01*
X90895925Y7192993D01*
X90863012Y7250000D01*
X91780000Y7250000D01*
X91780000Y7897823D01*
X91779999Y7897836D01*
X91773597Y7957378D01*
X91723352Y8092092D01*
X91723350Y8092095D01*
X91637191Y8207187D01*
X91637186Y8207192D01*
X91522094Y8293351D01*
X91522091Y8293353D01*
X91387377Y8343598D01*
X91327835Y8350000D01*
X90680000Y8350000D01*
X90680000Y7433012D01*
X90622993Y7465925D01*
X90495826Y7500000D01*
X90364174Y7500000D01*
X90237007Y7465925D01*
X90180000Y7433012D01*
X90180000Y8350000D01*
X89532164Y8350000D01*
X89472622Y8343598D01*
X89337908Y8293353D01*
X89337905Y8293351D01*
X89222813Y8207192D01*
X89222808Y8207187D01*
X89136649Y8092095D01*
X89136647Y8092092D01*
X89086402Y7957378D01*
X89080000Y7897836D01*
X89080000Y7250000D01*
X89996988Y7250000D01*
X89964075Y7192993D01*
X89930000Y7065826D01*
X89930000Y6934174D01*
X89964075Y6807007D01*
X89996988Y6750000D01*
X89080000Y6750000D01*
X89080000Y6102165D01*
X89086402Y6042623D01*
X89136647Y5907910D01*
X89189390Y5837455D01*
X89201220Y5791106D01*
X89176811Y5749966D01*
X89139356Y5737500D01*
X79486155Y5737500D01*
X79473961Y5738701D01*
X79463859Y5740711D01*
X79426194Y5748204D01*
X79403663Y5757538D01*
X79392196Y5765201D01*
X79368390Y5781110D01*
X79351146Y5798358D01*
X79327581Y5833637D01*
X79318252Y5856170D01*
X79314036Y5877383D01*
X79308700Y5904237D01*
X79307501Y5916432D01*
X79307506Y5939074D01*
X79307504Y5939077D01*
X79307506Y5945815D01*
X79307500Y5945879D01*
X79307500Y7080001D01*
X80114417Y7080001D01*
X80114417Y7080000D01*
X80134699Y6874070D01*
X80134700Y6874065D01*
X80194766Y6676051D01*
X80194768Y6676046D01*
X80292311Y6493556D01*
X80292313Y6493552D01*
X80292315Y6493550D01*
X80423590Y6333590D01*
X80583550Y6202315D01*
X80583553Y6202314D01*
X80583555Y6202312D01*
X80658912Y6162033D01*
X80766046Y6104768D01*
X80964066Y6044700D01*
X81170000Y6024417D01*
X81375934Y6044700D01*
X81573954Y6104768D01*
X81756450Y6202315D01*
X81916410Y6333590D01*
X82047685Y6493550D01*
X82145232Y6676046D01*
X82205300Y6874066D01*
X82225583Y7080000D01*
X82225583Y7080001D01*
X82654417Y7080001D01*
X82654417Y7080000D01*
X82674699Y6874070D01*
X82674700Y6874065D01*
X82734766Y6676051D01*
X82734768Y6676046D01*
X82832311Y6493556D01*
X82832313Y6493552D01*
X82832315Y6493550D01*
X82963590Y6333590D01*
X83123550Y6202315D01*
X83123553Y6202314D01*
X83123555Y6202312D01*
X83198912Y6162033D01*
X83306046Y6104768D01*
X83504066Y6044700D01*
X83710000Y6024417D01*
X83915934Y6044700D01*
X84113954Y6104768D01*
X84296450Y6202315D01*
X84456410Y6333590D01*
X84587685Y6493550D01*
X84685232Y6676046D01*
X84745300Y6874066D01*
X84765583Y7080000D01*
X84745300Y7285934D01*
X84685232Y7483954D01*
X84680749Y7492341D01*
X84676062Y7539946D01*
X84691674Y7565994D01*
X85092806Y7967126D01*
X85137000Y7985431D01*
X85181194Y7967125D01*
X85199500Y7922931D01*
X85199500Y6210252D01*
X85211132Y6151770D01*
X85211133Y6151768D01*
X85255447Y6085448D01*
X85321767Y6041134D01*
X85321769Y6041133D01*
X85380252Y6029500D01*
X87119748Y6029500D01*
X87178231Y6041133D01*
X87244552Y6085448D01*
X87288867Y6151769D01*
X87300500Y6210252D01*
X87300500Y7949748D01*
X87288867Y8008231D01*
X87288795Y8008339D01*
X87244552Y8074553D01*
X87178232Y8118867D01*
X87178230Y8118868D01*
X87119748Y8130500D01*
X85407070Y8130500D01*
X85362876Y8148806D01*
X85344570Y8193000D01*
X85362876Y8237194D01*
X85946876Y8821194D01*
X85991070Y8839500D01*
X95097000Y8839500D01*
X95141194Y8821194D01*
X95159500Y8777000D01*
X95159500Y8037800D01*
X95141194Y7993606D01*
X95115144Y7977992D01*
X95106047Y7975233D01*
X95106043Y7975231D01*
X94923555Y7877689D01*
X94923544Y7877681D01*
X94763591Y7746412D01*
X94763588Y7746409D01*
X94632319Y7586456D01*
X94632311Y7586445D01*
X94534768Y7403955D01*
X94534766Y7403950D01*
X94474700Y7205936D01*
X94474699Y7205931D01*
X94454417Y7000001D01*
X94454417Y7000000D01*
X94474699Y6794070D01*
X94474700Y6794065D01*
X94534766Y6596051D01*
X94534768Y6596046D01*
X94632311Y6413556D01*
X94632313Y6413552D01*
X94632315Y6413550D01*
X94763590Y6253590D01*
X94923550Y6122315D01*
X94923553Y6122314D01*
X94923555Y6122312D01*
X94992523Y6085448D01*
X95106046Y6024768D01*
X95304066Y5964700D01*
X95510000Y5944417D01*
X95715934Y5964700D01*
X95913954Y6024768D01*
X96096450Y6122315D01*
X96256410Y6253590D01*
X96387685Y6413550D01*
X96485232Y6596046D01*
X96545300Y6794066D01*
X96565583Y7000000D01*
X96565583Y7000001D01*
X96994417Y7000001D01*
X96994417Y7000000D01*
X97014699Y6794070D01*
X97014700Y6794065D01*
X97074766Y6596051D01*
X97074768Y6596046D01*
X97172311Y6413556D01*
X97172313Y6413552D01*
X97172315Y6413550D01*
X97303590Y6253590D01*
X97463550Y6122315D01*
X97463553Y6122314D01*
X97463555Y6122312D01*
X97532523Y6085448D01*
X97646046Y6024768D01*
X97844066Y5964700D01*
X98050000Y5944417D01*
X98255934Y5964700D01*
X98453954Y6024768D01*
X98636450Y6122315D01*
X98796410Y6253590D01*
X98927685Y6413550D01*
X99025232Y6596046D01*
X99085300Y6794066D01*
X99105583Y7000000D01*
X99105583Y7000001D01*
X99534417Y7000001D01*
X99534417Y7000000D01*
X99554699Y6794070D01*
X99554700Y6794065D01*
X99614766Y6596051D01*
X99614768Y6596046D01*
X99712311Y6413556D01*
X99712313Y6413552D01*
X99712315Y6413550D01*
X99843590Y6253590D01*
X100003550Y6122315D01*
X100003553Y6122314D01*
X100003555Y6122312D01*
X100072523Y6085448D01*
X100186046Y6024768D01*
X100384066Y5964700D01*
X100590000Y5944417D01*
X100795934Y5964700D01*
X100993954Y6024768D01*
X101176450Y6122315D01*
X101336410Y6253590D01*
X101467685Y6413550D01*
X101565232Y6596046D01*
X101625300Y6794066D01*
X101645583Y7000000D01*
X101645583Y7000001D01*
X102074417Y7000001D01*
X102074417Y7000000D01*
X102094699Y6794070D01*
X102094700Y6794065D01*
X102154766Y6596051D01*
X102154768Y6596046D01*
X102252311Y6413556D01*
X102252313Y6413552D01*
X102252315Y6413550D01*
X102383590Y6253590D01*
X102543550Y6122315D01*
X102543553Y6122314D01*
X102543555Y6122312D01*
X102612523Y6085448D01*
X102726046Y6024768D01*
X102924066Y5964700D01*
X103130000Y5944417D01*
X103335934Y5964700D01*
X103533954Y6024768D01*
X103716450Y6122315D01*
X103876410Y6253590D01*
X104007685Y6413550D01*
X104105232Y6596046D01*
X104165300Y6794066D01*
X104185583Y7000000D01*
X104165300Y7205934D01*
X104105232Y7403954D01*
X104007685Y7586450D01*
X103876410Y7746410D01*
X103778930Y7826409D01*
X103716455Y7877681D01*
X103716453Y7877682D01*
X103716450Y7877685D01*
X103716448Y7877687D01*
X103716444Y7877689D01*
X103533954Y7975232D01*
X103533949Y7975234D01*
X103335935Y8035300D01*
X103335930Y8035301D01*
X103130000Y8055583D01*
X102924069Y8035301D01*
X102924064Y8035300D01*
X102726050Y7975234D01*
X102726045Y7975232D01*
X102543555Y7877689D01*
X102543544Y7877681D01*
X102383591Y7746412D01*
X102383588Y7746409D01*
X102252319Y7586456D01*
X102252311Y7586445D01*
X102154768Y7403955D01*
X102154766Y7403950D01*
X102094700Y7205936D01*
X102094699Y7205931D01*
X102074417Y7000001D01*
X101645583Y7000001D01*
X101625300Y7205934D01*
X101565232Y7403954D01*
X101467685Y7586450D01*
X101336410Y7746410D01*
X101238930Y7826409D01*
X101176455Y7877681D01*
X101176453Y7877682D01*
X101176450Y7877685D01*
X101176448Y7877687D01*
X101176444Y7877689D01*
X100993954Y7975232D01*
X100993949Y7975234D01*
X100795935Y8035300D01*
X100795930Y8035301D01*
X100590000Y8055583D01*
X100384069Y8035301D01*
X100384064Y8035300D01*
X100186050Y7975234D01*
X100186045Y7975232D01*
X100003555Y7877689D01*
X100003544Y7877681D01*
X99843591Y7746412D01*
X99843588Y7746409D01*
X99712319Y7586456D01*
X99712311Y7586445D01*
X99614768Y7403955D01*
X99614766Y7403950D01*
X99554700Y7205936D01*
X99554699Y7205931D01*
X99534417Y7000001D01*
X99105583Y7000001D01*
X99085300Y7205934D01*
X99025232Y7403954D01*
X98927685Y7586450D01*
X98796410Y7746410D01*
X98698930Y7826409D01*
X98636455Y7877681D01*
X98636453Y7877682D01*
X98636450Y7877685D01*
X98636448Y7877687D01*
X98636444Y7877689D01*
X98453954Y7975232D01*
X98453949Y7975234D01*
X98255935Y8035300D01*
X98255930Y8035301D01*
X98050000Y8055583D01*
X97844069Y8035301D01*
X97844064Y8035300D01*
X97646050Y7975234D01*
X97646045Y7975232D01*
X97463555Y7877689D01*
X97463544Y7877681D01*
X97303591Y7746412D01*
X97303588Y7746409D01*
X97172319Y7586456D01*
X97172311Y7586445D01*
X97074768Y7403955D01*
X97074766Y7403950D01*
X97014700Y7205936D01*
X97014699Y7205931D01*
X96994417Y7000001D01*
X96565583Y7000001D01*
X96545300Y7205934D01*
X96485232Y7403954D01*
X96387685Y7586450D01*
X96256410Y7746410D01*
X96158930Y7826409D01*
X96096455Y7877681D01*
X96096453Y7877682D01*
X96096450Y7877685D01*
X96096448Y7877687D01*
X96096444Y7877689D01*
X95913956Y7975231D01*
X95913952Y7975233D01*
X95904856Y7977992D01*
X95867879Y8008339D01*
X95860500Y8037800D01*
X95860500Y13518932D01*
X95878805Y13563125D01*
X96031965Y13716285D01*
X102129500Y13716285D01*
X102129500Y13503716D01*
X102129501Y13503700D01*
X102162753Y13293760D01*
X102162753Y13293759D01*
X102228442Y13091590D01*
X102228446Y13091582D01*
X102324949Y12902183D01*
X102449897Y12730206D01*
X102600205Y12579898D01*
X102772182Y12454950D01*
X102772184Y12454949D01*
X102961588Y12358443D01*
X103163757Y12292754D01*
X103252244Y12278739D01*
X103373699Y12259502D01*
X103373705Y12259502D01*
X103373713Y12259500D01*
X103373715Y12259500D01*
X103586285Y12259500D01*
X103586287Y12259500D01*
X103796243Y12292754D01*
X103998412Y12358443D01*
X104187816Y12454949D01*
X104359792Y12579896D01*
X104510104Y12730208D01*
X104635051Y12902184D01*
X104731557Y13091588D01*
X104797246Y13293757D01*
X104830500Y13503713D01*
X104830500Y13716287D01*
X104797246Y13926243D01*
X104731557Y14128412D01*
X104635051Y14317816D01*
X104510104Y14489792D01*
X104510102Y14489795D01*
X104359794Y14640103D01*
X104187817Y14765051D01*
X103998418Y14861554D01*
X103998410Y14861558D01*
X103796241Y14927247D01*
X103586300Y14960499D01*
X103586288Y14960500D01*
X103586287Y14960500D01*
X103373713Y14960500D01*
X103373711Y14960500D01*
X103373699Y14960499D01*
X103163759Y14927247D01*
X103163758Y14927247D01*
X102961589Y14861558D01*
X102961581Y14861554D01*
X102772182Y14765051D01*
X102600205Y14640103D01*
X102449897Y14489795D01*
X102324949Y14317818D01*
X102228446Y14128419D01*
X102228442Y14128411D01*
X102162753Y13926242D01*
X102162753Y13926241D01*
X102129501Y13716301D01*
X102129500Y13716285D01*
X96031965Y13716285D01*
X96811002Y14495323D01*
X96855195Y14513628D01*
X96863349Y14513094D01*
X96909878Y14506968D01*
X96929999Y14504318D01*
X96930000Y14504318D01*
X96930002Y14504318D01*
X97086755Y14524955D01*
X97086755Y14524956D01*
X97086762Y14524956D01*
X97232841Y14585464D01*
X97358282Y14681718D01*
X97454536Y14807159D01*
X97515044Y14953238D01*
X97535682Y15110000D01*
X97526240Y15181716D01*
X97515045Y15266756D01*
X97515044Y15266758D01*
X97515044Y15266762D01*
X97454536Y15412841D01*
X97423533Y15453245D01*
X97358282Y15538283D01*
X97232841Y15634536D01*
X97232838Y15634538D01*
X97086765Y15695043D01*
X97086755Y15695046D01*
X96930002Y15715682D01*
X96929998Y15715682D01*
X96773244Y15695046D01*
X96773234Y15695043D01*
X96627161Y15634538D01*
X96627158Y15634536D01*
X96501717Y15538283D01*
X96405464Y15412842D01*
X96405462Y15412839D01*
X96344957Y15266766D01*
X96344954Y15266756D01*
X96324318Y15110002D01*
X96324318Y15109997D01*
X96333091Y15043354D01*
X96320710Y14997149D01*
X96315320Y14991003D01*
X95229534Y13905218D01*
X95229531Y13905214D01*
X95183385Y13825288D01*
X95183384Y13825285D01*
X95159501Y13736151D01*
X95159500Y13736143D01*
X95159500Y9603000D01*
X95141194Y9558806D01*
X95097000Y9540500D01*
X85773856Y9540500D01*
X85773855Y9540500D01*
X85773849Y9540499D01*
X85684715Y9516616D01*
X85684712Y9516615D01*
X85604786Y9470469D01*
X85604782Y9470466D01*
X84195993Y8061677D01*
X84151799Y8043371D01*
X84122338Y8050751D01*
X84113954Y8055232D01*
X83915934Y8115300D01*
X83915931Y8115301D01*
X83915930Y8115301D01*
X83710000Y8135583D01*
X83504069Y8115301D01*
X83504064Y8115300D01*
X83306050Y8055234D01*
X83306045Y8055232D01*
X83123555Y7957689D01*
X83123544Y7957681D01*
X82963591Y7826412D01*
X82963588Y7826409D01*
X82832319Y7666456D01*
X82832311Y7666445D01*
X82734768Y7483955D01*
X82734766Y7483950D01*
X82674700Y7285936D01*
X82674699Y7285931D01*
X82654417Y7080001D01*
X82225583Y7080001D01*
X82205300Y7285934D01*
X82145232Y7483954D01*
X82047685Y7666450D01*
X81916410Y7826410D01*
X81829392Y7897823D01*
X81756455Y7957681D01*
X81756453Y7957682D01*
X81756450Y7957685D01*
X81756448Y7957687D01*
X81756444Y7957689D01*
X81573954Y8055232D01*
X81573949Y8055234D01*
X81375935Y8115300D01*
X81375930Y8115301D01*
X81170000Y8135583D01*
X80964069Y8115301D01*
X80964064Y8115300D01*
X80766050Y8055234D01*
X80766045Y8055232D01*
X80583555Y7957689D01*
X80583544Y7957681D01*
X80423591Y7826412D01*
X80423588Y7826409D01*
X80292319Y7666456D01*
X80292311Y7666445D01*
X80194768Y7483955D01*
X80194766Y7483950D01*
X80134700Y7285936D01*
X80134699Y7285931D01*
X80114417Y7080001D01*
X79307500Y7080001D01*
X79307500Y13716285D01*
X79529500Y13716285D01*
X79529500Y13503716D01*
X79529501Y13503700D01*
X79562753Y13293760D01*
X79562753Y13293759D01*
X79628442Y13091590D01*
X79628446Y13091582D01*
X79724949Y12902183D01*
X79849897Y12730206D01*
X80000205Y12579898D01*
X80172182Y12454950D01*
X80172184Y12454949D01*
X80361588Y12358443D01*
X80563757Y12292754D01*
X80652244Y12278739D01*
X80773699Y12259502D01*
X80773705Y12259502D01*
X80773713Y12259500D01*
X80773715Y12259500D01*
X80986285Y12259500D01*
X80986287Y12259500D01*
X81196243Y12292754D01*
X81398412Y12358443D01*
X81587816Y12454949D01*
X81759792Y12579896D01*
X81910104Y12730208D01*
X82035051Y12902184D01*
X82131557Y13091588D01*
X82197246Y13293757D01*
X82230500Y13503713D01*
X82230500Y13716287D01*
X82197246Y13926243D01*
X82131557Y14128412D01*
X82035051Y14317816D01*
X81910104Y14489792D01*
X81910102Y14489795D01*
X81759794Y14640103D01*
X81587817Y14765051D01*
X81398418Y14861554D01*
X81398410Y14861558D01*
X81196241Y14927247D01*
X80986300Y14960499D01*
X80986288Y14960500D01*
X80986287Y14960500D01*
X80773713Y14960500D01*
X80773711Y14960500D01*
X80773699Y14960499D01*
X80563759Y14927247D01*
X80563758Y14927247D01*
X80361589Y14861558D01*
X80361581Y14861554D01*
X80172182Y14765051D01*
X80000205Y14640103D01*
X79849897Y14489795D01*
X79724949Y14317818D01*
X79628446Y14128419D01*
X79628442Y14128411D01*
X79562753Y13926242D01*
X79562753Y13926241D01*
X79529501Y13716301D01*
X79529500Y13716285D01*
X79307500Y13716285D01*
X79307500Y15610002D01*
X89574318Y15610002D01*
X89574318Y15609999D01*
X89594954Y15453245D01*
X89594957Y15453235D01*
X89655462Y15307162D01*
X89655464Y15307159D01*
X89751717Y15181718D01*
X89845180Y15110002D01*
X89877159Y15085464D01*
X90023238Y15024956D01*
X90023242Y15024956D01*
X90023244Y15024955D01*
X90179998Y15004318D01*
X90180000Y15004318D01*
X90180002Y15004318D01*
X90336755Y15024955D01*
X90336755Y15024956D01*
X90336762Y15024956D01*
X90482841Y15085464D01*
X90608282Y15181718D01*
X90630417Y15210567D01*
X90671840Y15234483D01*
X90718046Y15222104D01*
X90729584Y15210566D01*
X90751717Y15181722D01*
X90751719Y15181721D01*
X90751721Y15181718D01*
X90877162Y15085464D01*
X91023241Y15024956D01*
X91023245Y15024956D01*
X91023247Y15024955D01*
X91180001Y15004318D01*
X91180003Y15004318D01*
X91180005Y15004318D01*
X91336758Y15024955D01*
X91336758Y15024956D01*
X91336765Y15024956D01*
X91482844Y15085464D01*
X91608285Y15181718D01*
X91704539Y15307159D01*
X91765047Y15453238D01*
X91785685Y15610000D01*
X91765047Y15766762D01*
X91704539Y15912841D01*
X91608285Y16038282D01*
X91608282Y16038284D01*
X91608281Y16038286D01*
X91554955Y16079205D01*
X91531038Y16120632D01*
X91530503Y16128789D01*
X91530503Y16938934D01*
X91548808Y16983127D01*
X94311002Y19745322D01*
X94355195Y19763627D01*
X94363353Y19763092D01*
X94429998Y19754318D01*
X94430000Y19754318D01*
X94430002Y19754318D01*
X94586755Y19774955D01*
X94586755Y19774956D01*
X94586762Y19774956D01*
X94732841Y19835464D01*
X94858282Y19931718D01*
X94954536Y20057159D01*
X95015044Y20203238D01*
X95035682Y20360000D01*
X95015044Y20516762D01*
X94954536Y20662841D01*
X94932139Y20692029D01*
X94858282Y20788283D01*
X94732841Y20884536D01*
X94732838Y20884538D01*
X94586765Y20945043D01*
X94586755Y20945046D01*
X94430002Y20965682D01*
X94429998Y20965682D01*
X94273244Y20945046D01*
X94273234Y20945043D01*
X94127161Y20884538D01*
X94127158Y20884536D01*
X94001717Y20788283D01*
X93905464Y20662842D01*
X93905462Y20662839D01*
X93844957Y20516766D01*
X93844954Y20516756D01*
X93824318Y20360003D01*
X93824318Y20359998D01*
X93833091Y20293355D01*
X93820710Y20247150D01*
X93815320Y20241004D01*
X90899537Y17325221D01*
X90899534Y17325217D01*
X90853388Y17245291D01*
X90853387Y17245288D01*
X90829504Y17156154D01*
X90829503Y17156146D01*
X90829503Y16128789D01*
X90811197Y16084595D01*
X90805051Y16079205D01*
X90751720Y16038283D01*
X90729585Y16009436D01*
X90688158Y15985519D01*
X90641953Y15997900D01*
X90630417Y16009436D01*
X90608280Y16038284D01*
X90608280Y16038285D01*
X90554952Y16079205D01*
X90531035Y16120632D01*
X90530500Y16128789D01*
X90530500Y19438930D01*
X90548806Y19483124D01*
X94626876Y23561194D01*
X94671070Y23579500D01*
X95086212Y23579500D01*
X95130406Y23561194D01*
X95135796Y23555048D01*
X95176718Y23501717D01*
X95278480Y23423634D01*
X95302159Y23405464D01*
X95448238Y23344956D01*
X95448242Y23344956D01*
X95448244Y23344955D01*
X95604998Y23324318D01*
X95605000Y23324318D01*
X95605002Y23324318D01*
X95761755Y23344955D01*
X95761755Y23344956D01*
X95761762Y23344956D01*
X95907841Y23405464D01*
X96033282Y23501718D01*
X96129536Y23627159D01*
X96190044Y23773238D01*
X96210682Y23930000D01*
X96190044Y24086762D01*
X96129536Y24232841D01*
X96092556Y24281035D01*
X96033282Y24358283D01*
X95907841Y24454536D01*
X95907838Y24454538D01*
X95761765Y24515043D01*
X95761755Y24515046D01*
X95605002Y24535682D01*
X95604998Y24535682D01*
X95448244Y24515046D01*
X95448234Y24515043D01*
X95302161Y24454538D01*
X95302158Y24454536D01*
X95176718Y24358284D01*
X95135796Y24304952D01*
X95094370Y24281035D01*
X95086212Y24280500D01*
X94453856Y24280500D01*
X94453855Y24280500D01*
X94453849Y24280499D01*
X94364715Y24256616D01*
X94364712Y24256615D01*
X94284786Y24210469D01*
X94284782Y24210466D01*
X89899534Y19825218D01*
X89899531Y19825214D01*
X89853385Y19745288D01*
X89853384Y19745285D01*
X89829501Y19656151D01*
X89829500Y19656143D01*
X89829500Y16128789D01*
X89811194Y16084595D01*
X89805048Y16079205D01*
X89751721Y16038286D01*
X89655462Y15912838D01*
X89594957Y15766766D01*
X89594954Y15766756D01*
X89574318Y15610002D01*
X79307500Y15610002D01*
X79307500Y31803815D01*
X79308701Y31816007D01*
X79318218Y31863817D01*
X79327544Y31886327D01*
X79351144Y31921645D01*
X79368370Y31938874D01*
X79403690Y31962481D01*
X79426202Y31971810D01*
X79473835Y31981296D01*
X79486043Y31982500D01*
X79911674Y31982500D01*
X79911900Y31982525D01*
X79936247Y31982517D01*
X80044993Y32011628D01*
X80142495Y32067902D01*
X80222102Y32147501D01*
X80278386Y32244996D01*
X80307509Y32353739D01*
X80307500Y32410027D01*
X80307500Y32410500D01*
X80307500Y35273622D01*
X80307504Y35273665D01*
X80307503Y35280913D01*
X80307504Y35280914D01*
X80307500Y35303868D01*
X80308699Y35316047D01*
X80318201Y35363842D01*
X80327528Y35386368D01*
X80351110Y35421667D01*
X80368354Y35438911D01*
X80403645Y35462493D01*
X80426175Y35471826D01*
X80454399Y35477440D01*
X80473800Y35481299D01*
X80485993Y35482500D01*
X80509099Y35482500D01*
X87150897Y35482500D01*
X87173844Y35482500D01*
X87186036Y35481299D01*
G37*
%TD.AperFunction*%
%TD*%
M02*
