M48
; DRILL file {KiCad 8.0.3} date 2024-07-14T10:18:13+1000
; FORMAT={-:-/ absolute / inch / decimal}
; #@! TF.CreationDate,2024-07-14T10:18:13+10:00
; #@! TF.GenerationSoftware,Kicad,Pcbnew,8.0.3
; #@! TF.FileFunction,Plated,1,2,PTH
FMAT,2
INCH
; #@! TA.AperFunction,Plated,PTH,ViaDrill
T1C0.0118
; #@! TA.AperFunction,Plated,PTH,ViaDrill
T2C0.0157
; #@! TA.AperFunction,Plated,PTH,ComponentDrill
T3C0.0394
%
G90
G05
T1
X3.3873Y1.3795
X3.3873Y1.3445
X3.4223Y1.3795
X3.4223Y1.3445
X3.8348Y1.3795
X3.8348Y1.3445
X3.8723Y1.3795
X3.8723Y1.3445
T2
X3.2551Y0.8409
X3.3618Y0.6571
X3.5028Y0.5697
X3.5504Y0.6146
X3.5696Y1.2352
X3.5898Y0.6146
X3.5941Y0.4732
X3.6094Y1.1953
X3.6201Y0.5654
X3.6335Y0.7681
X3.6488Y1.2642
X3.6587Y0.4295
X3.665Y0.8083
X3.6858Y0.4996
X3.698Y1.2346
X3.7063Y0.3217
X3.7087Y0.2402
X3.7177Y0.8016
X3.7264Y0.4524
X3.7567Y0.7661
X3.7634Y0.611
X3.764Y0.9421
X3.7657Y0.8079
X3.8094Y0.2394
X3.8161Y0.5949
X3.8492Y0.3358
X3.9106Y0.2421
X4.0102Y0.2406
T3
X3.1957Y0.2787
X3.2957Y0.2787
X3.3957Y0.2787
X3.5602Y0.2756
X3.6602Y0.2756
X3.7602Y0.2756
X3.8602Y0.2756
X3.9602Y0.2756
X4.0602Y0.2756
M30
