%TF.GenerationSoftware,KiCad,Pcbnew,8.0.3*%
%TF.CreationDate,2024-07-14T10:18:13+10:00*%
%TF.ProjectId,USB-C to UART,5553422d-4320-4746-9f20-554152542e6b,rev?*%
%TF.SameCoordinates,Original*%
%TF.FileFunction,Legend,Top*%
%TF.FilePolarity,Positive*%
%FSLAX46Y46*%
G04 Gerber Fmt 4.6, Leading zero omitted, Abs format (unit mm)*
G04 Created by KiCad (PCBNEW 8.0.3) date 2024-07-14 10:18:13*
%MOMM*%
%LPD*%
G01*
G04 APERTURE LIST*
G04 Aperture macros list*
%AMRoundRect*
0 Rectangle with rounded corners*
0 $1 Rounding radius*
0 $2 $3 $4 $5 $6 $7 $8 $9 X,Y pos of 4 corners*
0 Add a 4 corners polygon primitive as box body*
4,1,4,$2,$3,$4,$5,$6,$7,$8,$9,$2,$3,0*
0 Add four circle primitives for the rounded corners*
1,1,$1+$1,$2,$3*
1,1,$1+$1,$4,$5*
1,1,$1+$1,$6,$7*
1,1,$1+$1,$8,$9*
0 Add four rect primitives between the rounded corners*
20,1,$1+$1,$2,$3,$4,$5,0*
20,1,$1+$1,$4,$5,$6,$7,0*
20,1,$1+$1,$6,$7,$8,$9,0*
20,1,$1+$1,$8,$9,$2,$3,0*%
G04 Aperture macros list end*
%ADD10C,0.150000*%
%ADD11C,0.120000*%
%ADD12RoundRect,0.140000X0.140000X0.170000X-0.140000X0.170000X-0.140000X-0.170000X0.140000X-0.170000X0*%
%ADD13RoundRect,0.135000X-0.135000X-0.185000X0.135000X-0.185000X0.135000X0.185000X-0.135000X0.185000X0*%
%ADD14R,0.650000X1.060000*%
%ADD15RoundRect,0.150000X-0.150000X0.825000X-0.150000X-0.825000X0.150000X-0.825000X0.150000X0.825000X0*%
%ADD16RoundRect,0.140000X-0.140000X-0.170000X0.140000X-0.170000X0.140000X0.170000X-0.140000X0.170000X0*%
%ADD17C,2.200000*%
%ADD18R,1.700000X1.700000*%
%ADD19O,1.700000X1.700000*%
%ADD20R,1.500000X1.500000*%
%ADD21R,0.300000X1.000000*%
%ADD22R,0.700000X1.150000*%
G04 APERTURE END LIST*
D10*
X79972969Y9861441D02*
X80468207Y9861441D01*
X80468207Y9861441D02*
X80201541Y9556679D01*
X80201541Y9556679D02*
X80315826Y9556679D01*
X80315826Y9556679D02*
X80392017Y9518584D01*
X80392017Y9518584D02*
X80430112Y9480489D01*
X80430112Y9480489D02*
X80468207Y9404298D01*
X80468207Y9404298D02*
X80468207Y9213822D01*
X80468207Y9213822D02*
X80430112Y9137632D01*
X80430112Y9137632D02*
X80392017Y9099536D01*
X80392017Y9099536D02*
X80315826Y9061441D01*
X80315826Y9061441D02*
X80087255Y9061441D01*
X80087255Y9061441D02*
X80011064Y9099536D01*
X80011064Y9099536D02*
X79972969Y9137632D01*
X80696779Y9861441D02*
X80963446Y9061441D01*
X80963446Y9061441D02*
X81230112Y9861441D01*
X81420588Y9861441D02*
X81915826Y9861441D01*
X81915826Y9861441D02*
X81649160Y9556679D01*
X81649160Y9556679D02*
X81763445Y9556679D01*
X81763445Y9556679D02*
X81839636Y9518584D01*
X81839636Y9518584D02*
X81877731Y9480489D01*
X81877731Y9480489D02*
X81915826Y9404298D01*
X81915826Y9404298D02*
X81915826Y9213822D01*
X81915826Y9213822D02*
X81877731Y9137632D01*
X81877731Y9137632D02*
X81839636Y9099536D01*
X81839636Y9099536D02*
X81763445Y9061441D01*
X81763445Y9061441D02*
X81534874Y9061441D01*
X81534874Y9061441D02*
X81458683Y9099536D01*
X81458683Y9099536D02*
X81420588Y9137632D01*
X89338207Y9823346D02*
X89262017Y9861441D01*
X89262017Y9861441D02*
X89147731Y9861441D01*
X89147731Y9861441D02*
X89033445Y9823346D01*
X89033445Y9823346D02*
X88957255Y9747156D01*
X88957255Y9747156D02*
X88919160Y9670965D01*
X88919160Y9670965D02*
X88881064Y9518584D01*
X88881064Y9518584D02*
X88881064Y9404298D01*
X88881064Y9404298D02*
X88919160Y9251917D01*
X88919160Y9251917D02*
X88957255Y9175727D01*
X88957255Y9175727D02*
X89033445Y9099536D01*
X89033445Y9099536D02*
X89147731Y9061441D01*
X89147731Y9061441D02*
X89223922Y9061441D01*
X89223922Y9061441D02*
X89338207Y9099536D01*
X89338207Y9099536D02*
X89376303Y9137632D01*
X89376303Y9137632D02*
X89376303Y9404298D01*
X89376303Y9404298D02*
X89223922Y9404298D01*
X89719160Y9061441D02*
X89719160Y9861441D01*
X89719160Y9861441D02*
X90176303Y9061441D01*
X90176303Y9061441D02*
X90176303Y9861441D01*
X90557255Y9061441D02*
X90557255Y9861441D01*
X90557255Y9861441D02*
X90747731Y9861441D01*
X90747731Y9861441D02*
X90862017Y9823346D01*
X90862017Y9823346D02*
X90938207Y9747156D01*
X90938207Y9747156D02*
X90976302Y9670965D01*
X90976302Y9670965D02*
X91014398Y9518584D01*
X91014398Y9518584D02*
X91014398Y9404298D01*
X91014398Y9404298D02*
X90976302Y9251917D01*
X90976302Y9251917D02*
X90938207Y9175727D01*
X90938207Y9175727D02*
X90862017Y9099536D01*
X90862017Y9099536D02*
X90747731Y9061441D01*
X90747731Y9061441D02*
X90557255Y9061441D01*
X94544874Y9861441D02*
X94811541Y9061441D01*
X94811541Y9061441D02*
X95078207Y9861441D01*
X95802017Y9137632D02*
X95763921Y9099536D01*
X95763921Y9099536D02*
X95649636Y9061441D01*
X95649636Y9061441D02*
X95573445Y9061441D01*
X95573445Y9061441D02*
X95459159Y9099536D01*
X95459159Y9099536D02*
X95382969Y9175727D01*
X95382969Y9175727D02*
X95344874Y9251917D01*
X95344874Y9251917D02*
X95306778Y9404298D01*
X95306778Y9404298D02*
X95306778Y9518584D01*
X95306778Y9518584D02*
X95344874Y9670965D01*
X95344874Y9670965D02*
X95382969Y9747156D01*
X95382969Y9747156D02*
X95459159Y9823346D01*
X95459159Y9823346D02*
X95573445Y9861441D01*
X95573445Y9861441D02*
X95649636Y9861441D01*
X95649636Y9861441D02*
X95763921Y9823346D01*
X95763921Y9823346D02*
X95802017Y9785251D01*
X96602017Y9137632D02*
X96563921Y9099536D01*
X96563921Y9099536D02*
X96449636Y9061441D01*
X96449636Y9061441D02*
X96373445Y9061441D01*
X96373445Y9061441D02*
X96259159Y9099536D01*
X96259159Y9099536D02*
X96182969Y9175727D01*
X96182969Y9175727D02*
X96144874Y9251917D01*
X96144874Y9251917D02*
X96106778Y9404298D01*
X96106778Y9404298D02*
X96106778Y9518584D01*
X96106778Y9518584D02*
X96144874Y9670965D01*
X96144874Y9670965D02*
X96182969Y9747156D01*
X96182969Y9747156D02*
X96259159Y9823346D01*
X96259159Y9823346D02*
X96373445Y9861441D01*
X96373445Y9861441D02*
X96449636Y9861441D01*
X96449636Y9861441D02*
X96563921Y9823346D01*
X96563921Y9823346D02*
X96602017Y9785251D01*
X86100112Y9861441D02*
X85719160Y9861441D01*
X85719160Y9861441D02*
X85681064Y9480489D01*
X85681064Y9480489D02*
X85719160Y9518584D01*
X85719160Y9518584D02*
X85795350Y9556679D01*
X85795350Y9556679D02*
X85985826Y9556679D01*
X85985826Y9556679D02*
X86062017Y9518584D01*
X86062017Y9518584D02*
X86100112Y9480489D01*
X86100112Y9480489D02*
X86138207Y9404298D01*
X86138207Y9404298D02*
X86138207Y9213822D01*
X86138207Y9213822D02*
X86100112Y9137632D01*
X86100112Y9137632D02*
X86062017Y9099536D01*
X86062017Y9099536D02*
X85985826Y9061441D01*
X85985826Y9061441D02*
X85795350Y9061441D01*
X85795350Y9061441D02*
X85719160Y9099536D01*
X85719160Y9099536D02*
X85681064Y9137632D01*
X86366779Y9861441D02*
X86633446Y9061441D01*
X86633446Y9061441D02*
X86900112Y9861441D01*
X92526303Y9137632D02*
X92488207Y9099536D01*
X92488207Y9099536D02*
X92373922Y9061441D01*
X92373922Y9061441D02*
X92297731Y9061441D01*
X92297731Y9061441D02*
X92183445Y9099536D01*
X92183445Y9099536D02*
X92107255Y9175727D01*
X92107255Y9175727D02*
X92069160Y9251917D01*
X92069160Y9251917D02*
X92031064Y9404298D01*
X92031064Y9404298D02*
X92031064Y9518584D01*
X92031064Y9518584D02*
X92069160Y9670965D01*
X92069160Y9670965D02*
X92107255Y9747156D01*
X92107255Y9747156D02*
X92183445Y9823346D01*
X92183445Y9823346D02*
X92297731Y9861441D01*
X92297731Y9861441D02*
X92373922Y9861441D01*
X92373922Y9861441D02*
X92488207Y9823346D01*
X92488207Y9823346D02*
X92526303Y9785251D01*
X92754874Y9861441D02*
X93212017Y9861441D01*
X92983445Y9061441D02*
X92983445Y9861441D01*
X93440588Y9099536D02*
X93554874Y9061441D01*
X93554874Y9061441D02*
X93745350Y9061441D01*
X93745350Y9061441D02*
X93821541Y9099536D01*
X93821541Y9099536D02*
X93859636Y9137632D01*
X93859636Y9137632D02*
X93897731Y9213822D01*
X93897731Y9213822D02*
X93897731Y9290013D01*
X93897731Y9290013D02*
X93859636Y9366203D01*
X93859636Y9366203D02*
X93821541Y9404298D01*
X93821541Y9404298D02*
X93745350Y9442394D01*
X93745350Y9442394D02*
X93592969Y9480489D01*
X93592969Y9480489D02*
X93516779Y9518584D01*
X93516779Y9518584D02*
X93478684Y9556679D01*
X93478684Y9556679D02*
X93440588Y9632870D01*
X93440588Y9632870D02*
X93440588Y9709060D01*
X93440588Y9709060D02*
X93478684Y9785251D01*
X93478684Y9785251D02*
X93516779Y9823346D01*
X93516779Y9823346D02*
X93592969Y9861441D01*
X93592969Y9861441D02*
X93783446Y9861441D01*
X93783446Y9861441D02*
X93897731Y9823346D01*
X102369160Y9061441D02*
X102369160Y9861441D01*
X102369160Y9861441D02*
X102559636Y9861441D01*
X102559636Y9861441D02*
X102673922Y9823346D01*
X102673922Y9823346D02*
X102750112Y9747156D01*
X102750112Y9747156D02*
X102788207Y9670965D01*
X102788207Y9670965D02*
X102826303Y9518584D01*
X102826303Y9518584D02*
X102826303Y9404298D01*
X102826303Y9404298D02*
X102788207Y9251917D01*
X102788207Y9251917D02*
X102750112Y9175727D01*
X102750112Y9175727D02*
X102673922Y9099536D01*
X102673922Y9099536D02*
X102559636Y9061441D01*
X102559636Y9061441D02*
X102369160Y9061441D01*
X103054874Y9861441D02*
X103512017Y9861441D01*
X103283445Y9061441D02*
X103283445Y9861441D01*
X104235827Y9061441D02*
X103969160Y9442394D01*
X103778684Y9061441D02*
X103778684Y9861441D01*
X103778684Y9861441D02*
X104083446Y9861441D01*
X104083446Y9861441D02*
X104159636Y9823346D01*
X104159636Y9823346D02*
X104197731Y9785251D01*
X104197731Y9785251D02*
X104235827Y9709060D01*
X104235827Y9709060D02*
X104235827Y9594775D01*
X104235827Y9594775D02*
X104197731Y9518584D01*
X104197731Y9518584D02*
X104159636Y9480489D01*
X104159636Y9480489D02*
X104083446Y9442394D01*
X104083446Y9442394D02*
X103778684Y9442394D01*
X82704874Y9861441D02*
X82971541Y9061441D01*
X82971541Y9061441D02*
X83238207Y9861441D01*
X83962017Y9137632D02*
X83923921Y9099536D01*
X83923921Y9099536D02*
X83809636Y9061441D01*
X83809636Y9061441D02*
X83733445Y9061441D01*
X83733445Y9061441D02*
X83619159Y9099536D01*
X83619159Y9099536D02*
X83542969Y9175727D01*
X83542969Y9175727D02*
X83504874Y9251917D01*
X83504874Y9251917D02*
X83466778Y9404298D01*
X83466778Y9404298D02*
X83466778Y9518584D01*
X83466778Y9518584D02*
X83504874Y9670965D01*
X83504874Y9670965D02*
X83542969Y9747156D01*
X83542969Y9747156D02*
X83619159Y9823346D01*
X83619159Y9823346D02*
X83733445Y9861441D01*
X83733445Y9861441D02*
X83809636Y9861441D01*
X83809636Y9861441D02*
X83923921Y9823346D01*
X83923921Y9823346D02*
X83962017Y9785251D01*
X84762017Y9137632D02*
X84723921Y9099536D01*
X84723921Y9099536D02*
X84609636Y9061441D01*
X84609636Y9061441D02*
X84533445Y9061441D01*
X84533445Y9061441D02*
X84419159Y9099536D01*
X84419159Y9099536D02*
X84342969Y9175727D01*
X84342969Y9175727D02*
X84304874Y9251917D01*
X84304874Y9251917D02*
X84266778Y9404298D01*
X84266778Y9404298D02*
X84266778Y9518584D01*
X84266778Y9518584D02*
X84304874Y9670965D01*
X84304874Y9670965D02*
X84342969Y9747156D01*
X84342969Y9747156D02*
X84419159Y9823346D01*
X84419159Y9823346D02*
X84533445Y9861441D01*
X84533445Y9861441D02*
X84609636Y9861441D01*
X84609636Y9861441D02*
X84723921Y9823346D01*
X84723921Y9823346D02*
X84762017Y9785251D01*
X97444874Y9861441D02*
X97902017Y9861441D01*
X97673445Y9061441D02*
X97673445Y9861441D01*
X98092493Y9861441D02*
X98625827Y9061441D01*
X98625827Y9861441D02*
X98092493Y9061441D01*
X100236303Y9061441D02*
X99969636Y9442394D01*
X99779160Y9061441D02*
X99779160Y9861441D01*
X99779160Y9861441D02*
X100083922Y9861441D01*
X100083922Y9861441D02*
X100160112Y9823346D01*
X100160112Y9823346D02*
X100198207Y9785251D01*
X100198207Y9785251D02*
X100236303Y9709060D01*
X100236303Y9709060D02*
X100236303Y9594775D01*
X100236303Y9594775D02*
X100198207Y9518584D01*
X100198207Y9518584D02*
X100160112Y9480489D01*
X100160112Y9480489D02*
X100083922Y9442394D01*
X100083922Y9442394D02*
X99779160Y9442394D01*
X100502969Y9861441D02*
X101036303Y9061441D01*
X101036303Y9861441D02*
X100502969Y9061441D01*
D11*
%TO.C,C3*%
X81537836Y24970000D02*
X81322164Y24970000D01*
X81537836Y24250000D02*
X81322164Y24250000D01*
%TO.C,R1*%
X90026359Y30310000D02*
X90333641Y30310000D01*
X90026359Y29550000D02*
X90333641Y29550000D01*
%TO.C,U2*%
X81080000Y22400000D02*
X81080000Y20600000D01*
X84300000Y20600000D02*
X84300000Y23050000D01*
%TO.C,U1*%
X87370000Y19860000D02*
X87370000Y21810000D01*
X87370000Y19860000D02*
X87370000Y17910000D01*
X97490000Y19860000D02*
X97490000Y23310000D01*
X97490000Y19860000D02*
X97490000Y17910000D01*
%TO.C,C4*%
X84952164Y18910000D02*
X85167836Y18910000D01*
X84952164Y18190000D02*
X85167836Y18190000D01*
%TO.C,C1*%
X81537836Y26220000D02*
X81322164Y26220000D01*
X81537836Y25500000D02*
X81322164Y25500000D01*
%TO.C,J1*%
X89100000Y8110000D02*
X90430000Y8110000D01*
X89100000Y7000000D02*
X89100000Y8110000D01*
X92610000Y5540000D02*
X92610000Y5950000D01*
X93330000Y5540000D02*
X93330000Y5950000D01*
X95150000Y5540000D02*
X95150000Y5950000D01*
X95870000Y5540000D02*
X95870000Y5950000D01*
X97690000Y5540000D02*
X97690000Y5950000D01*
X98410000Y5540000D02*
X98410000Y5950000D01*
X100230000Y5540000D02*
X100230000Y5950000D01*
X100950000Y5540000D02*
X100950000Y5950000D01*
X102770000Y5540000D02*
X102770000Y5950000D01*
X103490000Y5540000D02*
X103490000Y5950000D01*
%TO.C,JP1*%
X80790000Y6037071D02*
X80790000Y5640000D01*
X81550000Y6037071D02*
X81550000Y5640000D01*
X83330000Y6037071D02*
X83330000Y5640000D01*
X84090000Y6037071D02*
X84090000Y5640000D01*
X85870000Y5970000D02*
X85870000Y5640000D01*
X86250000Y8350000D02*
X87520000Y8350000D01*
X86630000Y5970000D02*
X86630000Y5640000D01*
X87520000Y8350000D02*
X87520000Y7080000D01*
X87580000Y5640000D02*
X79840000Y5640000D01*
%TO.C,TP3*%
X96930000Y35560000D02*
X98830000Y35560000D01*
X96930000Y33660000D02*
X96930000Y35560000D01*
X98830000Y35560000D02*
X98830000Y33660000D01*
X98830000Y33660000D02*
X96930000Y33660000D01*
%TO.C,C2*%
X93592164Y24420000D02*
X93807836Y24420000D01*
X93592164Y23700000D02*
X93807836Y23700000D01*
%TO.C,TP1*%
X85530000Y35560000D02*
X87430000Y35560000D01*
X85530000Y33660000D02*
X85530000Y35560000D01*
X87430000Y35560000D02*
X87430000Y33660000D01*
X87430000Y33660000D02*
X85530000Y33660000D01*
%TD*%
%LPC*%
D12*
%TO.C,C3*%
X81910000Y24610000D03*
X80950000Y24610000D03*
%TD*%
D13*
%TO.C,R1*%
X89670000Y29930000D03*
X90690000Y29930000D03*
%TD*%
D14*
%TO.C,U2*%
X83640000Y22600000D03*
X82690000Y22600000D03*
X81740000Y22600000D03*
X81740000Y20400000D03*
X83640000Y20400000D03*
%TD*%
D15*
%TO.C,U1*%
X96875000Y22335000D03*
X95605000Y22335000D03*
X94335000Y22335000D03*
X93065000Y22335000D03*
X91795000Y22335000D03*
X90525000Y22335000D03*
X89255000Y22335000D03*
X87985000Y22335000D03*
X87985000Y17385000D03*
X89255000Y17385000D03*
X90525000Y17385000D03*
X91795000Y17385000D03*
X93065000Y17385000D03*
X94335000Y17385000D03*
X95605000Y17385000D03*
X96875000Y17385000D03*
%TD*%
D16*
%TO.C,C4*%
X84580000Y18550000D03*
X85540000Y18550000D03*
%TD*%
D17*
%TO.C,H1*%
X80880000Y13610000D03*
%TD*%
D12*
%TO.C,C1*%
X81910000Y25860000D03*
X80950000Y25860000D03*
%TD*%
D18*
%TO.C,J1*%
X90430000Y7000000D03*
D19*
X92970000Y7000000D03*
X95510000Y7000000D03*
X98050000Y7000000D03*
X100590000Y7000000D03*
X103130000Y7000000D03*
%TD*%
D18*
%TO.C,JP1*%
X86250000Y7080000D03*
D19*
X83710000Y7080000D03*
X81170000Y7080000D03*
%TD*%
D20*
%TO.C,TP3*%
X97880000Y34610000D03*
%TD*%
D16*
%TO.C,C2*%
X93220000Y24060000D03*
X94180000Y24060000D03*
%TD*%
D20*
%TO.C,TP1*%
X86480000Y34610000D03*
%TD*%
D17*
%TO.C,H2*%
X103480000Y13610000D03*
%TD*%
D21*
%TO.C,P1*%
X89430000Y33570000D03*
X89930000Y33570000D03*
X90430000Y33570000D03*
X90930000Y33570000D03*
X91430000Y33570000D03*
X91930000Y33570000D03*
X92430000Y33570000D03*
X92930000Y33570000D03*
X93430000Y33570000D03*
X93930000Y33570000D03*
X94430000Y33570000D03*
X94930000Y33570000D03*
D22*
X88760000Y32730000D03*
%TD*%
%LPD*%
M02*
